<?xml version="1.0" encoding="UTF-8"?><svg id="a" xmlns="http://www.w3.org/2000/svg" viewBox="0 0 900 247"><defs><style>.b{fill:#eed971;}.c{fill:#f7bf5c;}.d{fill:#fbb155;}.e{fill:#ffa351;}.f{fill:#f3cc65;}</style></defs><path class="e" d="M0,230l18.8-2.7c18.9-2.6,56.5-8,94-15s74.9-15.6,112.4-14.8c37.5,.8,75.1,11.2,112.6,18.7s74.9,12.1,112.4,11.5c37.5-.7,75.1-6.7,112.6-7.9,37.5-1.1,74.9,2.5,112.4,.7s75.1-9.2,112.6-5.7,74.9,17.9,93.5,25l18.7,7.2V0H0V230Z"/><path class="d" d="M0,189l18.8-4.5c18.9-4.5,56.5-13.5,94-16.2,37.5-2.6,74.9,1,112.4,6.4,37.5,5.3,75.1,12.3,112.6,12.3s74.9-7,112.4-6.2c37.5,.9,75.1,9.5,112.6,12.4,37.5,2.8,74.9-.2,112.4-7,37.5-6.9,75.1-17.5,112.6-25.4,37.5-7.8,74.9-12.8,93.5-15.3l18.7-2.5V0H0V189Z"/><path class="c" d="M0,114l18.8,7.2c18.9,7.1,56.5,21.5,94,25s74.9-3.9,112.4-8.9c37.5-5,75.1-7.6,112.6-2.6s74.9,17.6,112.4,16.6,75.1-15.6,112.6-20.3,74.9,.7,112.4-1.5,75.1-11.8,112.6-16.3,74.9-3.9,93.5-3.5l18.7,.3V0H0V114Z"/><path class="f" d="M0,117H18.8c18.9,0,56.5,0,94-6.5s74.9-19.5,112.4-22.5c37.5-3,75.1,4,112.6,7.3,37.5,3.4,74.9,3,112.4,3.7s75.1,2.3,112.6,5.3,74.9,7.4,112.4,6.4,75.1-7.4,112.6-15.4,74.9-17.6,93.5-22.5l18.7-4.8V0H0V117Z"/><path class="b" d="M0,52l18.8,1.5c18.9,1.5,56.5,4.5,94,1s74.9-13.5,112.4-17.5c37.5-4,75.1-2,112.6-1s74.9,1,112.4,0,75.1-3,112.6,3,74.9,20,112.4,26,75.1,4,112.6,3.7c37.5-.4,74.9,1,93.5,1.6l18.7,.7V0H0V52Z"/></svg>